<?xml version="1.0" standalone="no"?>
<!DOCTYPE svg PUBLIC "-//W3C//DTD SVG 20010904//EN"
 "http://www.w3.org/TR/2001/REC-SVG-20010904/DTD/svg10.dtd">
<svg version="1.0" xmlns="http://www.w3.org/2000/svg"
 width="700.000000pt" height="700.000000pt" viewBox="0 0 700.000000 700.000000"
 preserveAspectRatio="xMidYMid meet">
<metadata>
Created by potrace 1.14, written by Peter Selinger 2001-2017
</metadata>
<g transform="translate(0.000000,700.000000) scale(0.100000,-0.100000)"
fill="#000000" stroke="none">
<path d="M1673 6182 l-1413 -816 0 -1866 0 -1866 311 -179 c171 -99 315 -181
320 -183 5 -2 9 380 9 967 l0 971 160 0 161 0 619 -357 620 -358 0 -1065 0
-1066 315 -182 c173 -100 317 -182 320 -182 3 0 5 643 5 1429 l0 1429 -580
334 c-318 183 -579 335 -580 338 0 3 253 151 563 329 309 179 570 331 580 339
16 14 17 94 17 1409 0 766 -3 1393 -7 1392 -5 0 -644 -368 -1420 -817z m775
-1618 c-7 -6 -287 -170 -623 -363 l-609 -351 -158 0 -158 0 0 578 1 577 777
448 777 447 3 -662 c2 -522 -1 -665 -10 -674z"/>
<path d="M3900 3501 c0 -1926 2 -3501 5 -3501 2 0 146 82 320 182 l315 182 0
1423 0 1423 780 0 780 0 0 -970 c0 -533 2 -970 5 -970 3 0 147 82 320 182
l315 182 0 1866 0 1866 -1411 814 c-775 448 -1414 817 -1420 818 -5 2 -9
-1320 -9 -3497z m1488 1914 l711 -410 1 -577 0 -578 -780 0 -780 0 0 1026 0
1026 68 -39 c38 -21 389 -222 780 -448z"/>
</g>
</svg>
